# xmcd
#
# Track frame offsets:
# 150
# 17145
# 36842
#
# Disc length: 737 seconds
#
# Revision: 1
# Processed by: cddbd v1.5.2PL0 Copyright (c) Steve Scherf et al.
# Submitted via: CedeCatalogueitor 2.6.0.6 http://personales.ya.com/cdcatalogueitor
#
DISCID=1c02df03
DTITLE=Gravehurst - Trust
DYEAR=1900
DGENRE=
TTITLE0=Trust
TTITLE1=Underfoot
TTITLE2=Trust
EXTD=
EXTT0=
EXTT1=
EXTT2=
PLAYORDER=
